# xmcd
#
# Track frame offsets:
#	150
#	6496
#	24493
#	48808
#	66260
#	84447
#	104877
#	123503
#	147183
#	167398
#	185777
#
# Disc length: 2689 seconds
#
# Revision: 0
# Processed by: cddbd v1.5.2PL0 Copyright (c) Steve Scherf et al.
# Submitted via: EasyCDDAExtractor 16.0.1.1
#
DISCID=960a7f0b
DTITLE=FAILIES - Dotyk
DYEAR=2012
DGENRE=Disco Polo
TTITLE0=Intro
TTITLE1=Dotyk
TTITLE2=Imprezy Czas
TTITLE3=Ostatni Raz
TTITLE4=Dotyk 2009
TTITLE5=Dla Ciebie
TTITLE6=Party Z Nami
TTITLE7=Zdobede Cie
TTITLE8=Aniolem Byc
TTITLE9=Dyskoteka Szklo
TTITLE10=Zla Kobieta
EXTD=
EXTT0=
EXTT1=
EXTT2=
EXTT3=
EXTT4=
EXTT5=
EXTT6=
EXTT7=
EXTT8=
EXTT9=
EXTT10=
PLAYORDER=
